<?xml version="1.0" standalone="no"?>
<!DOCTYPE svg PUBLIC "-//W3C//DTD SVG 1.1//EN" "http://www.w3.org/Graphics/SVG/1.1/DTD/svg11.dtd" >
<svg xmlns="http://www.w3.org/2000/svg">
<metadata></metadata>
<defs>
<font id="siemens_slabbold" horiz-adv-x="1179" >
<font-face units-per-em="2048" ascent="1638" descent="-410" />
<missing-glyph horiz-adv-x="512" />
<glyph unicode="&#xfb01;" horiz-adv-x="1376" d="M66 862v182h165v82q0 209 77 302.5t249 93.5q85 0 197 -31l-21 -188q-74 30 -127 30q-72 0 -103.5 -55.5t-31.5 -181.5v-52h330q139 0 373 11v-873l131 -6v-176h-504v176l133 6v680h-463v-680l133 -6v-176h-524v176l151 6v680h-165zM903 1382q0 64 43.5 107t108.5 43 q66 0 108.5 -43t42.5 -109t-42.5 -108.5t-108.5 -42.5t-109 43t-43 110z" />
<glyph unicode="&#xfb02;" horiz-adv-x="1363" d="M66 862v182h165v52q0 230 102 328t341 98q182 0 487 -41v-1299l133 -6v-176h-503v176l131 6v1118q-131 31 -240 31q-119 0 -165 -56t-46 -202v-29h201v-182h-201v-680l133 -6v-176h-524v176l151 6v680h-165z" />
<glyph horiz-adv-x="2048" />
<glyph horiz-adv-x="2048" />
<glyph unicode="&#xd;" horiz-adv-x="2048" />
<glyph unicode=" "  horiz-adv-x="512" />
<glyph unicode="&#x09;" horiz-adv-x="512" />
<glyph unicode="&#xa0;" horiz-adv-x="512" />
<glyph unicode="!" horiz-adv-x="694" d="M219 137q0 67 46 112.5t114 45.5q67 0 112.5 -45.5t45.5 -112.5q0 -69 -45 -114.5t-113 -45.5q-69 0 -114.5 45.5t-45.5 114.5zM254 1417h246l-19 -989h-209z" />
<glyph unicode="&#x22;" horiz-adv-x="663" d="M41 1495h244l-11 -526h-223zM379 1497h242l-11 -526h-221z" />
<glyph unicode="#" d="M76 395v178h194l37 265h-168v178h193l55 401h197l-56 -401h205l55 401h195l-55 -401h176v-178h-201l-35 -265h172v-178h-198l-54 -395h-196l55 395h-205l-53 -395h-196l53 395h-170zM467 573h205l37 265h-205z" />
<glyph unicode="$" d="M98 1032q0 186 110.5 290t321.5 114v166h123v-164q166 -6 375 -82v-336h-192l-19 174q-67 38 -164 53v-426q204 -62 279 -112q153 -100 153 -306q0 -196 -108.5 -298.5t-339.5 -124.5v-170h-123v167q-225 0 -414 86v351h193l16 -187q95 -55 205 -55v444 q-126 44 -203.5 83.5t-126.5 88.5t-67.5 106t-18.5 138zM348 1055q0 -73 43 -119.5t139 -77.5v385q-87 -7 -134.5 -56.5t-47.5 -131.5zM637 174q94 8 146.5 62t52.5 145q0 76 -41.5 117.5t-157.5 81.5v-406z" />
<glyph unicode="%" horiz-adv-x="1544" d="M57 1032q0 195 77.5 296.5t227.5 101.5q151 0 228.5 -102t77.5 -300t-77.5 -299.5t-228.5 -101.5q-305 0 -305 405zM238 1030q0 -266 124 -266q125 0 125 264t-125 264q-124 0 -124 -262zM412 -37l561 1491h162l-562 -1491h-161zM877 393q0 195 77.5 296.5t227.5 101.5 q151 0 228 -102t77 -300t-77 -299.5t-228 -101.5q-305 0 -305 405zM1057 391q0 -266 125 -266t125 264t-125 264t-125 -262z" />
<glyph unicode="&#x26;" horiz-adv-x="1492" d="M111 389q0 138 70 230.5t225 158.5q-92 101 -127 171.5t-35 154.5q0 154 111.5 245t301.5 91q197 0 306.5 -86.5t109.5 -243.5q0 -131 -73 -216t-252 -163l296 -323q72 83 111 237l-92 4v162h434v-162l-123 -6q-25 -111 -71 -202t-123 -181l71 -80l203 -4v-176h-338 l-102 115q-89 -72 -188 -105t-228 -33q-223 0 -355 111.5t-132 300.5zM365 397q0 -103 70.5 -165t187.5 -62q150 0 256 86l-349 383q-86 -45 -125.5 -104t-39.5 -138zM489 1090q0 -108 142 -230l20 8q187 85 187 219q0 75 -47 118.5t-129 43.5q-78 0 -125.5 -43.5 t-47.5 -115.5z" />
<glyph unicode="'" horiz-adv-x="368" d="M63 1497h244l-10 -526h-223z" />
<glyph unicode="(" horiz-adv-x="737" d="M109 621q0 563 473 944l131 -144q-365 -315 -365 -800q0 -239 92.5 -442.5t272.5 -358.5l-131 -144q-473 378 -473 945z" />
<glyph unicode=")" horiz-adv-x="737" d="M25 -180q179 155 271.5 358.5t92.5 442.5q0 486 -364 800l131 144q234 -186 353.5 -424.5t119.5 -519.5q0 -567 -473 -945z" />
<glyph unicode="*" d="M184 1100l60 196l278 -122l-33 301h203l-35 -301l279 122l61 -196l-292 -56l196 -219l-168 -120l-143 260l-141 -260l-168 120l196 219z" />
<glyph unicode="+" d="M94 428v188h395v428h203v-428h395v-188h-395v-428h-203v428h-395z" />
<glyph unicode="," horiz-adv-x="589" d="M49 -250l160 535h276l-204 -535h-232z" />
<glyph unicode="-" horiz-adv-x="636" d="M82 483v189h473v-189h-473z" />
<glyph unicode="." horiz-adv-x="589" d="M137 137q0 67 46 112.5t114 45.5q67 0 112.5 -45.5t45.5 -112.5q0 -69 -45 -114.5t-113 -45.5q-69 0 -114.5 45.5t-45.5 114.5z" />
<glyph unicode="/" horiz-adv-x="544" d="M-25 -49l369 1495h219l-368 -1495h-220z" />
<glyph unicode="0" d="M92 717q0 365 123 544t375 179q253 0 375 -179.5t122 -551.5t-122 -552t-375 -180q-255 0 -376.5 180.5t-121.5 559.5zM342 715q0 -275 60.5 -406t187.5 -131q126 0 187 130.5t61 400.5t-61 400t-187 130t-187 -129t-61 -395z" />
<glyph unicode="1" d="M143 1163l418 254h213v-1235l184 -6v-176h-606v176l183 6v971l-283 -178z" />
<glyph unicode="2" d="M111 0v197q383 352 525 530t142 307q0 92 -67 149.5t-176 57.5q-153 0 -340 -106l-60 206q208 99 426 99q221 0 344 -102.5t123 -288.5q0 -132 -63 -252t-224 -295q-152 -162 -303 -301h600v-201h-927z" />
<glyph unicode="3" d="M96 51l54 203q173 -80 335 -80q132 0 207.5 64t75.5 176q0 117 -88.5 174t-271.5 57q-56 0 -119 -4v193q64 -5 94 -5q184 0 277.5 56.5t93.5 165.5q0 89 -64 139.5t-178 50.5q-135 0 -324 -78l-49 201q194 76 404 76q220 0 340.5 -96t120.5 -271q0 -280 -289 -336 q303 -43 303 -334q0 -98 -37.5 -181t-108.5 -140q-128 -107 -370 -107q-210 0 -406 76z" />
<glyph unicode="4" d="M39 389v197l582 831h303v-839h202v-189h-202v-215l155 -6v-168h-569v168l174 6v215h-645zM270 578h418v606z" />
<glyph unicode="5" d="M113 63l69 205q171 -92 318 -92q135 0 215 79t80 212q0 125 -77 191.5t-222 66.5q-144 0 -326 -59l23 751h800v-200h-561l-12 -316q83 14 153 14q225 0 348 -118t123 -334q0 -232 -145 -365q-130 -121 -375 -121q-223 0 -411 86z" />
<glyph unicode="6" d="M117 571q0 222 60.5 407.5t168.5 293.5q162 168 453 168q54 0 186 -15l-18 -208q-104 24 -166 24q-173 0 -283.5 -117.5t-132.5 -324.5q117 123 293 123q189 0 297 -120.5t108 -330.5q0 -229 -128.5 -361.5t-352.5 -132.5q-238 0 -361.5 151t-123.5 443zM371 453 q0 -129 63 -205t172 -76q104 0 167 77t63 206q0 126 -60.5 199t-163.5 73q-107 0 -174 -75.5t-67 -198.5z" />
<glyph unicode="7" d="M104 1020v397h959v-192l-606 -1225h-271l613 1217h-484l-18 -197h-193z" />
<glyph unicode="8" d="M96 385q0 177 129 279q39 32 144 75q-132 69 -185 141.5t-53 186.5q0 172 123.5 272.5t335.5 100.5t335.5 -100.5t123.5 -272.5q0 -109 -51 -179.5t-179 -139.5q141 -63 201.5 -145t60.5 -210q0 -195 -130.5 -305.5t-362.5 -110.5q-229 0 -360.5 109t-131.5 299zM346 385 q0 -98 67 -157.5t177 -59.5q107 0 174 60t67 155q0 91 -61 155.5t-190 108.5q-234 -76 -234 -262zM377 1067q0 -80 56 -136t177 -97l11 4q86 32 134 91.5t48 133.5q0 86 -57.5 136t-155.5 50t-155.5 -49.5t-57.5 -132.5z" />
<glyph unicode="9" d="M94 946q0 228 128 361t349 133q242 0 366 -150.5t124 -443.5q0 -222 -60 -407t-167 -294q-165 -168 -453 -168q-53 0 -188 15l20 209q108 -25 164 -25q173 0 283.5 117.5t132.5 324.5q-116 -122 -293 -122q-188 0 -297 120.5t-109 329.5zM342 961q0 -125 60 -198t163 -73 q107 0 174.5 76t67.5 197q0 130 -63.5 206t-172.5 76q-104 0 -166.5 -77t-62.5 -207z" />
<glyph unicode=":" horiz-adv-x="589" d="M168 137q0 67 46 112.5t114 45.5q67 0 112 -45t45 -113q0 -69 -44.5 -114.5t-112.5 -45.5q-69 0 -114.5 45.5t-45.5 114.5zM168 874q0 67 46 112.5t114 45.5q67 0 112 -45t45 -113q0 -69 -44.5 -114t-112.5 -45q-70 0 -115 45t-45 114z" />
<glyph unicode=";" horiz-adv-x="589" d="M31 -250l159 535h277l-205 -535h-231zM166 874q0 67 46 112.5t114 45.5q67 0 112 -45t45 -113q0 -69 -44.5 -114t-112.5 -45q-70 0 -115 45t-45 114z" />
<glyph unicode="&#x3c;" d="M88 442v160l993 471v-217l-704 -334l704 -334v-217z" />
<glyph unicode="=" d="M94 246v188h993v-188h-993zM94 608v189h993v-189h-993z" />
<glyph unicode="&#x3e;" d="M98 -29v217l705 334l-705 334v217l994 -471v-160z" />
<glyph unicode="?" horiz-adv-x="925" d="M90 1337q109 56 201.5 80.5t193.5 24.5q189 0 299.5 -93t110.5 -253q0 -99 -51.5 -175.5t-190.5 -183.5q-83 -64 -104 -101.5t-21 -117.5v-92h-223v98q0 53 1 83.5t8 63t16 50.5t31 43.5t46 46t68 55.5q102 82 132 122t30 95q0 77 -49.5 123.5t-132.5 46.5 q-123 0 -297 -98zM260 137q0 67 46 112.5t114 45.5t113 -45.5t45 -112.5q0 -69 -45 -114.5t-113 -45.5q-69 0 -114.5 45.5t-45.5 114.5z" />
<glyph unicode="@" horiz-adv-x="1699" d="M86 711q0 210 101 376.5t282 259.5t410 93q217 0 384 -78.5t259 -222.5t92 -330q0 -209 -118 -352.5t-290 -143.5q-79 0 -124.5 36.5t-53.5 105.5q-53 -74 -117 -108t-153 -34q-139 0 -221 81.5t-82 219.5q0 201 141 337t348 136q162 0 295 -49l-65 -415q-11 -56 -11 -91 q0 -69 62 -69q57 0 108 50t81 133.5t30 176.5q0 212 -150 334q-79 63 -186.5 97t-224.5 34q-179 0 -322 -74.5t-224 -207.5t-81 -299q0 -257 177 -416.5t464 -159.5q153 0 324 57l28 -153q-180 -58 -368 -58q-175 0 -323.5 53.5t-252 149.5t-161.5 232.5t-58 298.5zM657 614 q0 -70 36 -110.5t98 -40.5q44 0 84.5 20.5t66.5 57.5q18 24 27.5 52.5t19.5 90.5l41 250q-55 14 -82 14q-115 0 -203 -101t-88 -233z" />
<glyph unicode="A" horiz-adv-x="1413" d="M-31 0v176l135 6l457 1235h277l469 -1235l135 -6v-176h-547v176l152 6l-93 256h-512l-92 -256l152 -6v-176h-533zM508 625h379l-109 311q-34 93 -80 244q-4 -13 -11.5 -37.5t-10.5 -34.5q-14 -46 -21 -66q-7 -21 -20 -58t-17 -48z" />
<glyph unicode="B" horiz-adv-x="1261" d="M72 0v176l145 6v1053l-145 6v176h524q147 0 227.5 -14t145.5 -51q75 -41 117 -124t42 -186q0 -130 -60.5 -208.5t-186.5 -110.5q278 -58 278 -332q0 -104 -42 -187t-120 -134q-64 -39 -142 -54.5t-214 -15.5h-569zM461 188h117q103 0 150 6.5t83 26.5q43 23 67.5 73 t24.5 114q0 134 -108 188q-39 20 -85.5 27.5t-129.5 7.5h-119v-443zM461 805h114q165 0 226 41q76 51 76 168q0 58 -20.5 103.5t-57.5 68.5q-38 25 -87 34t-147 9h-104v-424z" />
<glyph unicode="C" horiz-adv-x="1263" d="M106 698q0 343 180.5 542.5t489.5 199.5q188 0 385 -74v-362h-196l-19 208q-80 27 -166 27q-189 0 -302 -145t-113 -389t116 -385.5t316 -141.5q87 0 156 20t171 74l68 -200q-117 -54 -204.5 -74.5t-201.5 -20.5q-318 0 -499 191.5t-181 529.5z" />
<glyph unicode="D" horiz-adv-x="1452" d="M72 0v176l145 6v1053l-145 6v176h501q205 0 330 -32t219 -107q224 -178 224 -567q0 -209 -67 -362.5t-196 -239.5q-91 -60 -209.5 -84.5t-320.5 -24.5h-481zM465 197h98q235 0 348 79q83 60 129.5 173.5t46.5 259.5q0 147 -44 260.5t-125 173.5q-62 46 -136 62t-229 16 h-88v-1024z" />
<glyph unicode="E" horiz-adv-x="1222" d="M72 0v176l145 6v1053l-145 6v176h1001v-397h-194l-13 203h-401v-406h401v-196h-401v-426h432l14 208h193v-403h-1032z" />
<glyph unicode="F" horiz-adv-x="1183" d="M72 0v176l145 6v1053l-145 6v176h1003v-397h-194l-15 203h-401v-406h418v-196h-418v-439l147 -6v-176h-540z" />
<glyph unicode="G" horiz-adv-x="1468" d="M106 692q0 387 240 592q184 156 479 156q221 0 457 -86v-355h-199l-14 201q-121 39 -238 39q-246 0 -364 -172q-49 -68 -75.5 -165t-26.5 -204q0 -238 124.5 -379t333.5 -141q111 0 215 37v340l-164 6v166h541v-166l-133 -6v-489q-257 -89 -473 -89q-329 0 -516 190.5 t-187 524.5z" />
<glyph unicode="H" horiz-adv-x="1523" d="M72 0v176l145 6v1053l-145 6v176h540v-176l-147 -6v-414h594v414l-146 6v176h541v-176l-147 -6v-1053l147 -6v-176h-541v176l146 6v445h-594v-445l147 -6v-176h-540z" />
<glyph unicode="I" horiz-adv-x="681" d="M72 0v176l145 6v1053l-145 6v176h540v-176l-147 -6v-1053l147 -6v-176h-540z" />
<glyph unicode="J" horiz-adv-x="872" d="M18 18l21 207q103 -43 186 -43q124 0 166 82q17 33 23 87.5t6 170.5v713l-168 6v176h557v-176l-141 -6v-705q0 -192 -16 -277.5t-64 -148.5q-97 -127 -324 -127q-140 0 -246 41z" />
<glyph unicode="K" horiz-adv-x="1355" d="M72 0v176l145 6v1053l-145 6v176h524v-176l-131 -6v-485l430 487l-131 4v176h524v-176l-121 -4l-422 -481l453 -576l119 -4v-176h-553v176l133 4l-432 555v-553l131 -6v-176h-524z" />
<glyph unicode="L" horiz-adv-x="1144" d="M72 0v176l145 6v1053l-145 6v176h555v-176l-162 -6v-1038h424l14 206h193v-403h-1024z" />
<glyph unicode="M" horiz-adv-x="1931" d="M72 0v176l145 6v1053l-145 6v176h508l315 -899q54 -164 76 -248q30 104 78 248l311 899h502v-176l-146 -6v-1053l146 -6v-176h-529v176l142 6v979q-17 -49 -45 -153q-10 -33 -54 -156l-293 -852h-237l-289 827q-48 136 -84 252q-20 67 -24 82v-979l141 -6v-176h-518z" />
<glyph unicode="N" horiz-adv-x="1560" d="M72 0v176l145 6v1053l-145 6v176h424l452 -753q86 -140 139 -252q21 -35 35 -70q-4 78 -4 260v633l-147 6v176h524v-176l-145 -6v-1235h-277l-452 752q-89 147 -177 319q5 -139 5 -299v-590l147 -6v-176h-524z" />
<glyph unicode="O" horiz-adv-x="1527" d="M106 717q0 164 54.5 309.5t152.5 243.5q164 170 451 170q326 0 500 -226q157 -204 157 -505q0 -171 -53 -316t-154 -246q-164 -170 -450 -170q-326 0 -500 226q-158 204 -158 514zM365 715q0 -249 106.5 -393t292.5 -144q184 0 291.5 143t107.5 388t-107.5 387.5 t-291.5 142.5q-183 0 -291 -142t-108 -382z" />
<glyph unicode="P" horiz-adv-x="1185" d="M72 0v176l145 6v1053l-145 6v176h487q162 0 254 -19t158 -65q77 -56 118 -144t41 -198q0 -227 -165 -342q-67 -45 -156 -64.5t-229 -19.5h-115v-383l176 -6v-176h-569zM461 760h80q95 0 146 7.5t89 27.5q48 23 74.5 73t26.5 117q0 63 -24 114t-67 79q-39 25 -90 35 t-143 10h-92v-463z" />
<glyph unicode="Q" horiz-adv-x="1527" d="M106 709q0 170 53.5 315t153.5 246q164 170 451 170q326 0 500 -226q157 -204 157 -505q0 -247 -103.5 -426t-291.5 -256q94 -94 297 -222l-125 -170q-269 150 -469 342q-122 8 -204.5 35t-155.5 84q-125 95 -194 256.5t-69 356.5zM365 715q0 -249 106.5 -393t292.5 -144 q184 0 291.5 143t107.5 388t-107.5 387.5t-291.5 142.5q-183 0 -291 -142t-108 -382z" />
<glyph unicode="R" horiz-adv-x="1253" d="M72 0v176l145 6v1053l-145 6v176h563q126 0 207 -17t139 -57q72 -47 112 -126.5t40 -176.5q0 -138 -73.5 -231t-209.5 -127q72 -26 105 -69t102 -201l100 -232l127 -4v-176h-315l-129 307q-44 101 -71.5 152.5t-64 85.5t-74 42.5t-102.5 8.5h-63v-414l147 -6v-176h-540z M461 791h96q146 0 213 34q51 26 80 75t29 110q0 120 -86 174q-37 22 -87.5 30.5t-138.5 8.5h-106v-432z" />
<glyph unicode="S" horiz-adv-x="1171" d="M106 1022q0 198 127 308t355 110q173 0 426 -66v-354h-193l-16 182q-109 41 -207 41q-110 0 -174 -50t-64 -138q0 -77 54 -119q30 -24 67 -41t152 -59q144 -54 210.5 -85t112.5 -67q121 -89 121 -281q0 -205 -136 -315.5t-390 -110.5q-221 0 -442 80v346h192l16 -174 q99 -55 242 -55q121 0 191.5 55.5t70.5 149.5q0 43 -9.5 69.5t-44 53.5t-88 51t-155.5 61q-146 54 -198.5 77.5t-92.5 53.5q-127 86 -127 277z" />
<glyph unicode="T" horiz-adv-x="1216" d="M12 1020v397h1192v-397h-194l-13 203h-268v-1041l203 -6v-176h-656v176l205 6v1041h-262l-14 -203h-193z" />
<glyph unicode="U" horiz-adv-x="1511" d="M61 1241v176h541v-176l-147 -6v-657q0 -123 14.5 -194t48.5 -114q76 -92 240 -92q93 0 161.5 32t102.5 91q43 79 43 264v670l-143 6v176h530v-176l-147 -6v-606q0 -222 -17.5 -314t-73.5 -163q-135 -175 -456 -175q-364 0 -488 211q-38 66 -50.5 153.5t-12.5 287.5v606z " />
<glyph unicode="V" horiz-adv-x="1323" d="M-45 1241v176h541v-176l-160 -6l215 -600q62 -174 117 -356q68 223 116 358l217 598l-159 6v176h524v-176l-119 -6l-452 -1235h-269l-452 1237z" />
<glyph unicode="W" horiz-adv-x="1908" d="M-8 1241v176h520v-176l-154 -6l131 -592q42 -191 66 -324q38 178 74 314l202 784h261l194 -758q32 -124 35 -139q19 -80 22 -92q10 -50 21 -94q21 123 66 323l133 578l-154 6v176h508v-176l-121 -6l-297 -1235h-264l-195 760q-26 98 -34 135q-17 64 -50 215l-28 -117 q-10 -43 -60 -229l-202 -764h-265l-288 1235z" />
<glyph unicode="X" horiz-adv-x="1423" d="M31 0v176l116 6l406 561l-367 494l-120 4v176h548v-176l-145 -6l260 -348l244 348l-146 6v176h539v-176l-121 -6l-377 -528l396 -525l125 -6v-176h-562v176l148 6l-281 379l-270 -379l156 -6v-176h-549z" />
<glyph unicode="Y" horiz-adv-x="1234" d="M-41 1241v176h545v-176l-146 -4l185 -291q45 -71 82 -141l37 65q6 12 23 39t26 43l180 285l-146 4v176h529v-176l-117 -4l-416 -645v-410l177 -6v-176h-601v176l177 6v410l-418 645z" />
<glyph unicode="Z" horiz-adv-x="1261" d="M88 0v195l768 1028h-543l-14 -203h-193v397h1043v-194l-764 -1028h573l15 208h192v-403h-1077z" />
<glyph unicode="[" horiz-adv-x="737" d="M188 -301v1837h433v-190h-203v-1457h203v-190h-433z" />
<glyph unicode="\" horiz-adv-x="544" d="M-18 1446h219l368 -1495h-219z" />
<glyph unicode="]" horiz-adv-x="737" d="M119 -111h200v1457h-200v190h430v-1837h-430v190z" />
<glyph unicode="^" d="M55 633l447 784h176l446 -784h-245l-289 526l-289 -526h-246z" />
<glyph unicode="_" horiz-adv-x="1024" d="M-70 -258h1166v-182h-1166v182z" />
<glyph unicode="`" horiz-adv-x="1024" d="M182 1497h291l248 -299h-223z" />
<glyph unicode="a" horiz-adv-x="1153" d="M78 293q0 98 43 174t123 119q100 53 307 53q37 0 172 -6v33q0 116 -55 170.5t-172 54.5q-134 0 -287 -88l-64 172q185 92 377 92q255 0 363 -127q45 -55 61.5 -124t16.5 -206v-428l133 -6v-176h-351l-8 119q-76 -77 -148.5 -109.5t-174.5 -32.5q-158 0 -247 84t-89 232z M326 299q0 -72 44 -115t117 -43q135 0 236 146v196q-47 4 -107 4q-149 0 -219.5 -45.5t-70.5 -142.5z" />
<glyph unicode="b" horiz-adv-x="1249" d="M53 0v176l133 6v1133l-133 6v176l373 10v-594q121 154 305 154q190 0 305 -148.5t115 -394.5q0 -266 -131 -418q-108 -129 -289 -129q-104 0 -175.5 39.5t-139.5 133.5l-6 -150h-357zM426 340q110 -178 248 -178q104 0 166.5 99t62.5 265q0 164 -64 260.5t-171 96.5 q-69 0 -132 -45t-110 -129v-369z" />
<glyph unicode="c" horiz-adv-x="1044" d="M96 516q0 132 39 241t111 183q68 66 152.5 96.5t201.5 30.5q170 0 338 -63v-322h-197l-16 184q-65 19 -117 19q-126 0 -195 -95t-69 -268q0 -172 77 -266t218 -94q131 0 256 84l76 -174q-153 -95 -355 -95q-245 0 -382.5 143t-137.5 396z" />
<glyph unicode="d" horiz-adv-x="1255" d="M96 524q0 246 115 394.5t305 148.5q184 0 305 -154v402l-139 6v176l379 10v-1325l133 -6v-176h-356l-7 150q-68 -94 -139.5 -133.5t-175.5 -39.5q-206 0 -321 170q-99 154 -99 377zM344 526q0 -166 62.5 -265t166.5 -99q72 0 131.5 43t116.5 135v369q-47 84 -109.5 129 t-131.5 45q-108 0 -172 -96.5t-64 -260.5z" />
<glyph unicode="e" horiz-adv-x="1171" d="M96 520q0 255 134 401t366 146q163 0 273 -65.5t157 -190.5q28 -72 38.5 -150.5t12.5 -214.5h-729q13 -147 87 -217.5t214 -70.5q156 0 312 100l83 -176q-182 -105 -401 -105q-263 0 -405 141t-142 402zM348 614h483q-3 132 -64.5 204.5t-170.5 72.5t-175.5 -74 t-72.5 -203z" />
<glyph unicode="f" horiz-adv-x="776" d="M61 862v182h166v82q0 209 78 302.5t252 93.5q83 0 193 -29l-21 -190q-60 28 -119 28q-76 0 -109.5 -55.5t-33.5 -183.5v-48h240v-182h-240v-680l178 -6v-176h-569v176l151 6v680h-166z" />
<glyph unicode="g" horiz-adv-x="1255" d="M96 543q0 238 114.5 381t305.5 143q206 0 322 -168l4 156l356 -11v-176l-133 -6v-743q0 -180 -18 -265.5t-72 -152.5q-133 -164 -428 -164q-223 0 -406 92l74 178q155 -88 313 -88q96 0 164.5 36t100.5 104t32 243v74q-71 -80 -143.5 -115.5t-167.5 -35.5 q-191 0 -304.5 141t-113.5 377zM344 539q0 -150 64 -240t170 -90q74 0 139 47t108 131v303q-40 91 -107 142t-145 51q-106 0 -167.5 -93t-61.5 -251z" />
<glyph unicode="h" horiz-adv-x="1314" d="M66 0v176l133 6v1133l-133 6v176l372 10v-600q85 85 167.5 122.5t185.5 37.5q221 0 296 -172q35 -77 35 -258v-455l133 -6v-176h-503v176l131 6v455q0 131 -39.5 188.5t-130.5 57.5q-71 0 -142.5 -45.5t-132.5 -130.5v-525l131 -6v-176h-503z" />
<glyph unicode="i" horiz-adv-x="636" d="M66 0v176l133 6v680l-133 6v176l372 11v-873l131 -6v-176h-503zM170 1382q0 64 42 106t107 42t106.5 -42t41.5 -106q0 -66 -41.5 -107.5t-106.5 -41.5q-66 0 -107.5 41.5t-41.5 107.5z" />
<glyph unicode="j" horiz-adv-x="626" d="M-59 -440l20 186q66 -18 102 -18q75 0 108.5 53.5t33.5 177.5v903l-154 6v176l393 11v-1061q0 -141 -13 -215t-46 -121q-83 -121 -272 -121q-81 0 -172 23zM176 1382q0 64 42.5 106t107.5 42q64 0 105.5 -41.5t41.5 -106.5q0 -66 -41 -107.5t-106 -41.5q-66 0 -108 41.5 t-42 107.5z" />
<glyph unicode="k" horiz-adv-x="1212" d="M66 0v176l133 6v1135l-133 6v174l372 10v-911l336 283l-135 4v161h512v-161l-96 -6l-357 -295l363 -402l110 -4v-176h-497v176h100l-336 381v-375l123 -6v-176h-495z" />
<glyph unicode="l" horiz-adv-x="636" d="M66 0v176l133 6v1133l-133 6v176l372 10v-1325l131 -6v-176h-503z" />
<glyph unicode="m" horiz-adv-x="1908" d="M66 0v176l133 6v680l-133 6v176l356 11v-166q99 104 171.5 141t174.5 37q216 0 283 -190q82 98 168 144t190 46q102 0 172.5 -44t104.5 -128q32 -74 32 -258v-455l133 -6v-176h-495v176l123 6v455q0 131 -34.5 188.5t-111.5 57.5q-65 0 -131.5 -45.5t-124.5 -130.5v-525 l125 -6v-176h-487v176l123 6v459q0 127 -34.5 184.5t-111.5 57.5q-135 0 -254 -176v-525l123 -6v-176h-495z" />
<glyph unicode="n" horiz-adv-x="1314" d="M66 0v176l133 6v680l-133 6v176l356 11v-166q105 104 182.5 141t186.5 37q221 0 296 -172q35 -77 35 -258v-455l133 -6v-176h-503v176l131 6v455q0 131 -39.5 188.5t-130.5 57.5q-146 0 -275 -176v-525l131 -6v-176h-503z" />
<glyph unicode="o" horiz-adv-x="1216" d="M96 528q0 249 138 394t374 145q238 0 375 -146t137 -399t-137 -399t-375 -146q-239 0 -375.5 146.5t-136.5 404.5zM344 526q0 -172 70 -269t194 -97q123 0 193.5 96.5t70.5 265.5t-70.5 266t-193.5 97t-193.5 -96.5t-70.5 -262.5z" />
<glyph unicode="p" horiz-adv-x="1261" d="M66 -264l133 6v1120l-133 6v176l360 11v-156q78 93 149 130.5t170 37.5q190 0 305 -148.5t115 -394.5q0 -266 -131 -418q-111 -129 -291 -129q-99 0 -170.5 36.5t-134.5 119.5v-391l156 -6v-176h-528v176zM438 340q60 -94 118.5 -136t129.5 -42q106 0 169 99t63 265 q0 164 -64 260.5t-172 96.5q-138 0 -244 -172v-371z" />
<glyph unicode="q" horiz-adv-x="1261" d="M92 524q0 246 115 394.5t305 148.5q98 0 167.5 -37t149.5 -131v156l361 -11v-176l-133 -6v-1120l133 -6v-176h-533v176l160 6v391q-63 -83 -134 -119.5t-169 -36.5q-209 0 -324 170q-98 152 -98 377zM340 526q0 -166 62.5 -265t166.5 -99q72 0 131 42t117 136v371 q-106 172 -242 172q-107 0 -171 -96.5t-64 -260.5z" />
<glyph unicode="r" horiz-adv-x="819" d="M66 0v176l133 6v680l-133 6v176l358 11v-197q41 99 111 151t161 52q48 0 92 -12l-10 -211q-44 10 -84 10q-94 0 -160 -60t-98 -174v-432l154 -6v-176h-524z" />
<glyph unicode="s" horiz-adv-x="1024" d="M96 51v293h187l14 -154q88 -36 192 -36q97 0 150 35t53 98q0 45 -29 71t-100 45q-270 73 -338 113q-129 72 -129 229q0 154 106 238t300 84q190 0 379 -59v-297h-185l-12 155q-88 31 -178 31q-84 0 -130 -33.5t-46 -93.5q0 -68 65 -98q41 -19 195 -62q135 -36 184 -57.5 t88 -58.5q66 -63 66 -183q0 -163 -114 -248.5t-331 -85.5q-219 0 -387 74z" />
<glyph unicode="t" horiz-adv-x="784" d="M49 862v182h168v228l240 45v-273h237v-182h-237v-485q0 -116 30.5 -161.5t108.5 -45.5q42 0 113 25l22 -183q-106 -35 -213 -35q-179 0 -250 109q-28 41 -39.5 105.5t-11.5 173.5v497h-168z" />
<glyph unicode="u" horiz-adv-x="1294" d="M57 868v176l373 11v-647q0 -130 39 -188t127 -58q67 0 136.5 44t131.5 126v530l-133 6v176l373 11v-873l131 -6v-176h-352v154q-152 -177 -365 -177q-108 0 -183 44t-110 129q-35 80 -35 260v452z" />
<glyph unicode="v" horiz-adv-x="1126" d="M2 868v176h487v-176l-137 -6l148 -395q49 -133 78 -229q42 138 77 231l144 393l-137 6v176h464v-176l-102 -6l-322 -862h-272l-326 862z" />
<glyph unicode="w" horiz-adv-x="1708" d="M8 868v176h475v-176l-137 -6l88 -321q34 -119 72 -293q2 8 7.5 34.5t8.5 39.5l15 61q1 2 10.5 36t20 71.5t16.5 58.5l145 495h258l152 -491q34 -107 51 -172l33 -133q43 182 75 299l91 315l-142 6v176h455v-176l-96 -4l-254 -864h-256l-156 502q-35 109 -49 164 q-26 88 -41 149q-40 -158 -86 -317l-148 -498h-258l-247 862z" />
<glyph unicode="x" horiz-adv-x="1159" d="M27 0v168l96 4l305 383l-276 319l-91 5v165h469v-165l-110 -2l188 -220l168 220l-110 2v165h434v-165l-92 -5l-279 -352l303 -350l94 -4v-168h-487v168h125l-215 252l-191 -250l125 -2v-168h-456z" />
<glyph unicode="y" horiz-adv-x="1116" d="M-10 868v176h489v-176l-135 -6l137 -346q63 -166 66 -176q5 -22 22 -70q12 31 21 64q24 80 67 192l129 336l-135 6v176h465v-176l-102 -4l-348 -887q-71 -180 -131 -273t-130.5 -131t-177.5 -38q-98 0 -213 37l43 186q72 -30 129 -30q83 0 138 63t114 225l-346 848z" />
<glyph unicode="z" horiz-adv-x="1083" d="M92 0v170l582 700h-367l-14 -180h-187v354h852v-174l-577 -696h403l15 182h186v-356h-893z" />
<glyph unicode="{" horiz-adv-x="737" d="M70 537v161q80 4 115 21t48 58.5t13 133.5v263q0 114 13.5 181t51.5 109.5t98.5 57t163.5 14.5h117v-174h-92q-75 0 -98 -34t-23 -148v-308q0 -136 -37 -184t-159 -70q123 -23 159.5 -71t36.5 -185v-307q0 -114 23 -148t98 -34h92v-174h-117q-103 0 -163.5 14.5t-98.5 57 t-51.5 109.5t-13.5 181v263q0 92 -13 133.5t-48 58.5t-115 21z" />
<glyph unicode="|" horiz-adv-x="589" d="M178 -440v1857h236v-1857h-236z" />
<glyph unicode="}" horiz-adv-x="737" d="M47 -127h92q75 0 98 34t23 148v307q0 137 37 185t160 71q-122 22 -159.5 70t-37.5 184v308q0 114 -23 148t-98 34h-92v174h117q103 0 163.5 -14.5t99 -57t52 -109.5t13.5 -181v-263q0 -92 13 -133.5t48 -58.5t115 -21v-161q-80 -4 -115 -21t-48 -58.5t-13 -133.5v-263 q0 -114 -13.5 -181t-52 -109.5t-99 -57t-163.5 -14.5h-117v174z" />
<glyph unicode="~" d="M74 444q85 145 152 201.5t153 56.5q53 0 103.5 -19t152.5 -79q73 -41 105.5 -54t60.5 -13q43 0 81.5 34t92.5 119l133 -90q-83 -149 -146 -203.5t-151 -54.5q-56 0 -108.5 18.5t-141.5 69.5q-91 53 -120 65.5t-60 12.5q-41 0 -74 -30t-98 -126z" />
<glyph unicode="&#xa1;" horiz-adv-x="694" d="M219 907q0 67 45.5 112.5t112.5 45.5q69 0 114.5 -45.5t45.5 -114.5q0 -67 -46 -112t-114 -45t-113 45t-45 114zM254 -334l18 950h209l19 -950h-246z" />
<glyph unicode="&#xa2;" d="M117 874q0 167 60 292.5t173 193.5q97 56 242 61v176h125v-174q168 -9 334 -71v-322h-185l-12 178q-62 22 -137 31v-711q151 9 287 84l49 -182q-139 -74 -336 -86v-168h-125v168q-235 19 -355 152.5t-120 377.5zM365 885q0 -312 227 -353v705q-110 -15 -168.5 -106 t-58.5 -246z" />
<glyph unicode="&#xa3;" d="M49 0v195h164q26 46 34.5 110.5t8.5 220.5v119h-186v176h186v101q0 164 20.5 243.5t77.5 141.5q122 131 369 131q175 0 364 -66v-352h-192l-16 190q-74 27 -142 27q-152 0 -205 -115q-30 -64 -30 -217v-84h303v-176h-303v-119q0 -152 -7 -215t-32 -116h422l14 208h193 v-403h-1043z" />
<glyph unicode="&#xa4;" d="M10 268l133 135q-90 137 -90 312q0 176 90 313l-133 135l123 123l129 -131q137 105 328 105t328 -105l129 131l120 -123l-133 -135q48 -74 69 -147t21 -166t-20.5 -165.5t-69.5 -146.5l133 -135l-120 -123l-129 129q-136 -102 -328 -102q-194 0 -328 102l-129 -129z M246 721q0 -87 23.5 -151.5t74.5 -118.5q49 -52 107.5 -75.5t138.5 -23.5q154 0 248 100t94 263q0 164 -94.5 264t-249.5 100q-152 0 -247 -99t-95 -259z" />
<glyph unicode="&#xa5;" d="M-23 1241v176h480v-176l-68 -2l209 -379l209 379l-72 2v176h469v-176l-137 -8l-266 -459h241v-131h-311l-18 -37v-96h327v-131h-327v-197l170 -6v-176h-584v176l172 6v197h-330v131h330v96l-20 37h-312v131h242l-266 459z" />
<glyph unicode="&#xa6;" horiz-adv-x="589" d="M178 0v573h236v-573h-236zM178 844v573h236v-573h-236z" />
<glyph unicode="&#xa7;" d="M166 547q0 85 41.5 154t132.5 135q-78 56 -110.5 114.5t-32.5 145.5q0 163 109.5 253.5t305.5 90.5q183 0 359 -70v-326h-185l-12 175q-77 26 -151 26q-78 0 -123 -36.5t-45 -100.5q0 -67 55 -102q30 -21 61.5 -35.5t143.5 -57.5q159 -62 223 -118q80 -74 80 -195 q0 -88 -39.5 -156t-130.5 -135q79 -55 111 -114t32 -148q0 -169 -113.5 -260.5t-322.5 -91.5q-208 0 -377 72v323h184l13 -170q70 -31 162 -31q94 0 145 37.5t51 106.5q0 63 -51 102q-29 22 -63.5 38t-143.5 58q-94 39 -141.5 64t-83.5 57q-40 35 -62 86.5t-22 108.5z M393 594q0 -41 27 -70.5t92 -60.5q43 -23 188 -80q91 91 91 170q0 62 -80 113q-48 26 -179 77l-47 19q-92 -80 -92 -168z" />
<glyph unicode="&#xa8;" horiz-adv-x="1024" d="M160 1362q0 60 39.5 98.5t99.5 38.5q63 0 102 -38.5t39 -100.5t-39 -101.5t-100 -39.5q-63 0 -102 40t-39 103zM584 1362q0 60 39.5 98.5t99.5 38.5q63 0 102 -38.5t39 -100.5t-39 -101.5t-100 -39.5q-63 0 -102 40t-39 103z" />
<glyph unicode="&#xa9;" horiz-adv-x="1638" d="M90 719q0 202 95 367t262 258.5t372 93.5q156 0 291.5 -55t231.5 -151t151 -231.5t55 -291.5q0 -155 -55 -290.5t-150.5 -232t-231 -151.5t-290.5 -55q-158 0 -294 55t-232 151.5t-150.5 234t-54.5 298.5zM184 717q0 -191 81 -341.5t226.5 -234.5t329.5 -84q181 0 326 84 t226 233t81 335q0 139 -48 260.5t-131.5 207t-201.5 134.5t-254 49q-180 0 -325.5 -83.5t-227.5 -230.5t-82 -329zM465 702q0 178 106 281.5t289 103.5q137 0 244 -40v-230h-137l-13 123q-41 12 -80 12q-103 0 -164 -66.5t-61 -180.5q0 -115 65.5 -180.5t180.5 -65.5 q47 0 85.5 10t96.5 37l39 -131q-115 -56 -254 -56q-185 0 -291 102.5t-106 280.5z" />
<glyph unicode="&#xaa;" horiz-adv-x="737" d="M80 999q0 101 72 150t221 49q28 0 73 -2v16q0 53 -28.5 78t-91.5 25q-77 0 -179 -41l-22 110q85 29 127 37.5t106 8.5q162 0 217 -84q20 -31 25.5 -64t5.5 -125v-209l78 -4v-108h-219l-6 61q-44 -41 -86 -57.5t-99 -16.5q-91 0 -142.5 47t-51.5 129zM244 1008 q0 -32 21.5 -50t58.5 -18q71 0 122 57v105q-23 2 -47 2q-155 0 -155 -96z" />
<glyph unicode="&#xab;" horiz-adv-x="1138" d="M63 522l367 463l158 -119l-258 -344l258 -346l-158 -119zM530 522l365 463l158 -119l-256 -344l256 -346l-158 -119z" />
<glyph unicode="&#xac;" d="M84 592v188h958v-626h-208v438h-750z" />
<glyph unicode="&#xad;" horiz-adv-x="636" d="M82 483v189h473v-189h-473z" />
<glyph unicode="&#xae;" horiz-adv-x="1228" d="M84 1020q0 224 151.5 374t378.5 150q230 0 380.5 -150t150.5 -380q0 -113 -40 -211.5t-110 -168.5t-168 -110.5t-211 -40.5q-233 0 -382.5 151t-149.5 386zM172 1020q0 -204 124.5 -333.5t319.5 -129.5q191 0 316 129.5t125 327.5t-125.5 327t-317.5 129 q-190 0 -316 -128t-126 -322zM354 735v78l72 4v389l-72 4v78h246q74 0 110 -5.5t62 -22.5q70 -39 70 -130q0 -54 -28.5 -87t-90.5 -50q31 -14 45.5 -30.5t34.5 -61.5l37 -84l55 -4v-78h-156l-47 113q-26 68 -49 88t-72 20h-18v-139l63 -4v-78h-262zM553 1040h20 q77 0 107.5 18.5t30.5 65.5q0 42 -28 61t-91 19h-39v-164z" />
<glyph unicode="&#xaf;" horiz-adv-x="1024" d="M174 1268v153h678v-153h-678z" />
<glyph unicode="&#xb0;" horiz-adv-x="679" d="M18 1126q0 137 90.5 224.5t231.5 87.5q144 0 234 -88t90 -228q0 -141 -89.5 -229t-232.5 -88q-147 0 -235.5 87.5t-88.5 233.5zM141 1124q0 -97 53.5 -153t147.5 -56q91 0 145 55.5t54 149.5t-54.5 149.5t-146.5 55.5q-91 0 -145 -55t-54 -146z" />
<glyph unicode="&#xb1;" d="M94 0v186h993v-186h-993zM94 596v186h395v277h203v-277h395v-186h-395v-272h-203v272h-395z" />
<glyph unicode="&#xb2;" horiz-adv-x="794" d="M106 639v135q114 83 248 203q74 69 107 120t33 97q0 44 -36 71t-96 27q-83 0 -217 -63l-36 137q140 64 274 64q136 0 212.5 -59t76.5 -163q0 -68 -32 -128t-108 -136q-109 -105 -192 -170h338v-135h-572z" />
<glyph unicode="&#xb3;" horiz-adv-x="794" d="M98 670l31 137q122 -43 219 -43q72 0 112 28.5t40 79.5q0 111 -191 111q-6 0 -76 -4v123q37 -4 72 -4q89 0 138 27.5t49 78.5q0 41 -38 65.5t-104 24.5q-82 0 -194 -37l-27 134q133 39 254 39q139 0 215 -53.5t76 -151.5q0 -135 -150 -178q83 -22 122.5 -67t39.5 -120 q0 -112 -82.5 -172.5t-236.5 -60.5q-141 0 -269 43z" />
<glyph unicode="&#xb4;" horiz-adv-x="1024" d="M326 1198l247 299h291l-315 -299h-223z" />
<glyph unicode="&#xb5;" d="M18 868v176l373 11v-613q0 -147 29 -204q44 -80 133 -80q62 0 114.5 45.5t112.5 150.5v508l-133 6v176l373 11v-873l135 -6v-176h-352l-8 129q-102 -152 -250 -152q-99 0 -158 70v-487h-235v1302z" />
<glyph unicode="&#xb6;" horiz-adv-x="1351" d="M41 1001q0 121 53.5 217t147.5 146q60 31 130.5 42t205.5 11h718v-176l-147 -6v-1477h-227v1459h-238v-1459h-227v838q-196 9 -306 116t-110 289z" />
<glyph unicode="&#xb7;" horiz-adv-x="589" d="M137 586q0 66 46 110.5t114 44.5t113 -45t45 -112q0 -69 -45 -114.5t-113 -45.5q-69 0 -114.5 46t-45.5 116z" />
<glyph unicode="&#xb8;" horiz-adv-x="1024" d="M238 -375l241 307h269l-287 -307h-223z" />
<glyph unicode="&#xb9;" horiz-adv-x="794" d="M125 1274l250 143h149v-645l107 -6v-127h-387v127l110 6v477l-166 -96z" />
<glyph unicode="&#xba;" horiz-adv-x="737" d="M76 1130q0 138 79 219t214 81q136 0 214.5 -81.5t78.5 -222.5t-78.5 -222t-214.5 -81q-138 0 -215.5 81t-77.5 226zM240 1126q0 -83 34.5 -130.5t94.5 -47.5t94.5 48.5t34.5 131.5q0 81 -35 129t-94 48q-60 0 -94.5 -48t-34.5 -131z" />
<glyph unicode="&#xbb;" horiz-adv-x="1138" d="M84 174l256 346l-256 346l158 119l366 -465l-366 -463zM551 174l256 346l-256 346l158 119l364 -465l-364 -463z" />
<glyph unicode="&#xbc;" horiz-adv-x="1759" d="M98 1274l250 143h150v-645l106 -6v-127h-387v127l111 6v477l-166 -96zM506 -37l561 1491h162l-561 -1491h-162zM973 178v135l334 465h219v-475h114v-125h-114v-178h-168v178h-385zM1122 303h244v344z" />
<glyph unicode="&#xbd;" horiz-adv-x="1759" d="M94 1274l250 143h150v-645l106 -6v-127h-387v127l111 6v477l-166 -96zM473 -37l561 1491h164l-561 -1491h-164zM1036 0v135q114 83 248 203q139 130 139 217q0 44 -35.5 71t-95.5 27q-81 0 -217 -65l-37 139q140 64 275 64q136 0 212.5 -59t76.5 -163q0 -68 -32 -128 t-108 -136q-108 -105 -192 -170h338v-135h-572z" />
<glyph unicode="&#xbe;" horiz-adv-x="1759" d="M104 670l31 137q122 -43 219 -43q72 0 112 28.5t40 79.5q0 111 -191 111q-5 0 -75 -4v123q37 -4 71 -4q89 0 138 27.5t49 78.5q0 41 -38 65.5t-104 24.5q-82 0 -194 -37l-27 134q133 39 254 39q139 0 215 -53.5t76 -151.5q0 -135 -150 -178q83 -22 122.5 -67t39.5 -120 q0 -112 -82.5 -172.5t-236.5 -60.5q-141 0 -269 43zM526 -37l561 1491h164l-561 -1491h-164zM979 178v135l332 465h219v-475h117v-125h-117v-178h-168v178h-383zM1128 303h242v344z" />
<glyph unicode="&#xbf;" horiz-adv-x="925" d="M29 -29q0 99 51 175.5t190 183.5q83 64 104 101.5t21 117.5v69h223v-75q0 -54 -1 -84t-8 -62.5t-16 -50.5t-30.5 -43.5t-45.5 -46.5t-68 -55q-102 -82 -132 -121.5t-30 -93.5q0 -69 49.5 -111.5t130.5 -42.5q122 0 299 98l68 -182q-109 -56 -201.5 -80t-196.5 -24 q-188 0 -297.5 88t-109.5 239zM348 907q0 67 45 112.5t113 45.5q69 0 114.5 -45.5t45.5 -114.5q0 -67 -46 -112t-114 -45t-113 45t-45 114z" />
<glyph unicode="&#xc0;" horiz-adv-x="1413" d="M-31 0v176l135 6l457 1235h277l469 -1235l135 -6v-176h-547v176l152 6l-93 256h-512l-92 -256l152 -6v-176h-533zM352 1849h291l248 -299h-223zM508 625h379l-109 311q-34 93 -80 244q-4 -13 -11.5 -37.5t-10.5 -34.5q-14 -46 -21 -66q-7 -21 -20 -58t-17 -48z" />
<glyph unicode="&#xc1;" horiz-adv-x="1413" d="M-31 0v176l135 6l457 1235h277l469 -1235l135 -6v-176h-547v176l152 6l-93 256h-512l-92 -256l152 -6v-176h-533zM508 625h379l-109 311q-34 93 -80 244q-4 -13 -11.5 -37.5t-10.5 -34.5q-14 -46 -21 -66q-7 -21 -20 -58t-17 -48zM539 1550l247 299h291l-315 -299h-223z " />
<glyph unicode="&#xc2;" horiz-adv-x="1413" d="M-31 0v176l135 6l457 1235h277l469 -1235l135 -6v-176h-547v176l152 6l-93 256h-512l-92 -256l152 -6v-176h-533zM338 1550l225 299h285l227 -299h-225l-143 187l-144 -187h-225zM508 625h379l-109 311q-34 93 -80 244q-4 -13 -11.5 -37.5t-10.5 -34.5q-14 -46 -21 -66 q-7 -21 -20 -58t-17 -48z" />
<glyph unicode="&#xc3;" horiz-adv-x="1413" d="M-31 0v176l135 6l457 1235h277l469 -1235l135 -6v-176h-547v176l152 6l-93 256h-512l-92 -256l152 -6v-176h-533zM326 1573q9 117 63.5 183.5t142.5 66.5q68 0 193 -45q101 -35 137 -35q75 0 84 84h139q-24 -252 -211 -252q-38 0 -72.5 7.5t-109.5 33.5q-116 39 -147 39 q-60 0 -78 -82h-141zM508 625h379l-109 311q-34 93 -80 244q-4 -13 -11.5 -37.5t-10.5 -34.5q-14 -46 -21 -66q-7 -21 -20 -58t-17 -48z" />
<glyph unicode="&#xc4;" horiz-adv-x="1413" d="M-31 0v176l135 6l457 1235h277l469 -1235l135 -6v-176h-547v176l152 6l-93 256h-512l-92 -256l152 -6v-176h-533zM350 1704q0 63 41.5 103t104.5 40t104 -41t41 -104t-41 -104.5t-104 -41.5q-64 0 -105 41.5t-41 106.5zM508 625h379l-109 311q-34 93 -80 244 q-4 -13 -11.5 -37.5t-10.5 -34.5q-14 -46 -21 -66q-7 -21 -20 -58t-17 -48zM774 1704q0 63 41.5 103t104.5 40t104 -41t41 -104t-41 -104.5t-104 -41.5q-64 0 -105 41.5t-41 106.5z" />
<glyph unicode="&#xc5;" horiz-adv-x="1413" d="M-31 0v176l135 6l457 1235q-98 70 -98 193q0 103 67.5 170t171.5 67q103 0 170.5 -67t67.5 -168q0 -126 -100 -195l467 -1235l135 -6v-176h-547v176l152 6l-93 256h-512l-92 -256l152 -6v-176h-533zM508 625h379l-109 311q-38 104 -80 244q-4 -13 -11.5 -37.5 t-10.5 -34.5q-4 -16 -10 -33t-9 -28q-21 -55 -39 -111zM588 1612q0 -56 30 -88.5t84 -32.5q51 0 82 32.5t31 86.5q0 55 -31 88t-82 33q-52 0 -83 -32.5t-31 -86.5z" />
<glyph unicode="&#xc6;" horiz-adv-x="1902" d="M-139 0v176l131 6l715 1235h1044v-397h-195l-12 203h-399v-406h469v-196h-469v-426h428l14 208h195v-403h-885v397h-502l-125 -217l131 -4v-176h-540zM494 584h403v639h-41z" />
<glyph unicode="&#xc7;" horiz-adv-x="1263" d="M106 698q0 343 180.5 542.5t489.5 199.5q188 0 385 -74v-362h-196l-19 208q-80 27 -166 27q-189 0 -302 -145t-113 -389t116 -385.5t316 -141.5q87 0 156 20t171 74l68 -200q-117 -54 -204.5 -74.5t-201.5 -20.5q-318 0 -499 191.5t-181 529.5zM381 -375l242 307h268 l-287 -307h-223z" />
<glyph unicode="&#xc8;" horiz-adv-x="1222" d="M72 0v176l145 6v1053l-145 6v176h1001v-397h-194l-13 203h-401v-406h401v-196h-401v-426h432l14 208h193v-403h-1032zM289 1849h291l247 -299h-223z" />
<glyph unicode="&#xc9;" horiz-adv-x="1222" d="M72 0v176l145 6v1053l-145 6v176h1001v-397h-194l-13 203h-401v-406h401v-196h-401v-426h432l14 208h193v-403h-1032zM442 1550l248 299h291l-315 -299h-224z" />
<glyph unicode="&#xca;" horiz-adv-x="1222" d="M72 0v176l145 6v1053l-145 6v176h1001v-397h-194l-13 203h-401v-406h401v-196h-401v-426h432l14 208h193v-403h-1032zM250 1550l225 299h285l227 -299h-225l-144 187l-143 -187h-225z" />
<glyph unicode="&#xcb;" horiz-adv-x="1222" d="M72 0v176l145 6v1053l-145 6v176h1001v-397h-194l-13 203h-401v-406h401v-196h-401v-426h432l14 208h193v-403h-1032zM262 1704q0 63 41.5 103t104.5 40t104 -41t41 -104t-41 -104.5t-104 -41.5q-64 0 -105 41.5t-41 106.5zM686 1704q0 63 41 103t104 40t104.5 -41 t41.5 -104t-41.5 -104.5t-104.5 -41.5q-64 0 -104.5 41.5t-40.5 106.5z" />
<glyph unicode="&#xcc;" horiz-adv-x="681" d="M12 1849h291l248 -299h-223zM72 0v176l145 6v1053l-145 6v176h540v-176l-147 -6v-1053l147 -6v-176h-540z" />
<glyph unicode="&#xcd;" horiz-adv-x="681" d="M72 0v176l145 6v1053l-145 6v176h540v-176l-147 -6v-1053l147 -6v-176h-540zM156 1550l247 299h291l-315 -299h-223z" />
<glyph unicode="&#xce;" horiz-adv-x="681" d="M-27 1550l226 299h284l228 -299h-226l-143 187l-143 -187h-226zM72 0v176l145 6v1053l-145 6v176h540v-176l-147 -6v-1053l147 -6v-176h-540z" />
<glyph unicode="&#xcf;" horiz-adv-x="681" d="M-16 1704q0 63 41 103t104 40t104 -41t41 -104t-41 -104.5t-104 -41.5q-64 0 -104.5 41.5t-40.5 106.5zM70 0v176l147 6v1053l-147 6v176h540v-176l-145 -6v-1053l145 -6v-176h-540zM408 1704q0 63 41 103t104 40t104 -41t41 -104t-41 -104.5t-104 -41.5 q-64 0 -104.5 41.5t-40.5 106.5z" />
<glyph unicode="&#xd0;" horiz-adv-x="1452" d="M45 649v148h172v438l-147 6v176h503q204 0 329.5 -32t219.5 -107q224 -178 224 -565q0 -211 -67 -364.5t-196 -239.5q-91 -60 -209.5 -84.5t-320.5 -24.5h-483v176l147 6v467h-172zM465 197h98q235 0 348 79q83 60 129.5 174t46.5 259q0 146 -44.5 260t-124.5 174 q-62 46 -136.5 62t-230.5 16h-86v-424h285v-148h-285v-452z" />
<glyph unicode="&#xd1;" horiz-adv-x="1560" d="M72 0v176l145 6v1053l-145 6v176h424l452 -753q86 -140 139 -252q21 -35 35 -70q-4 78 -4 260v633l-147 6v176h524v-176l-145 -6v-1235h-277l-452 752q-89 147 -177 319q5 -139 5 -299v-590l147 -6v-176h-524zM432 1573q9 117 64 183.5t143 66.5q67 0 192 -45 q101 -35 138 -35q75 0 84 84h139q-24 -252 -211 -252q-38 0 -72.5 7.5t-109.5 33.5q-116 39 -148 39q-60 0 -78 -82h-141z" />
<glyph unicode="&#xd2;" horiz-adv-x="1527" d="M106 717q0 164 54.5 309.5t152.5 243.5q164 170 451 170q326 0 500 -226q157 -204 157 -505q0 -171 -53 -316t-154 -246q-164 -170 -450 -170q-326 0 -500 226q-158 204 -158 514zM365 715q0 -249 106.5 -393t292.5 -144q184 0 291.5 143t107.5 388t-107.5 387.5 t-291.5 142.5q-183 0 -291 -142t-108 -382zM434 1849h291l248 -299h-223z" />
<glyph unicode="&#xd3;" horiz-adv-x="1527" d="M106 717q0 164 54.5 309.5t152.5 243.5q164 170 451 170q326 0 500 -226q157 -204 157 -505q0 -171 -53 -316t-154 -246q-164 -170 -450 -170q-326 0 -500 226q-158 204 -158 514zM365 715q0 -249 106.5 -393t292.5 -144q184 0 291.5 143t107.5 388t-107.5 387.5 t-291.5 142.5q-183 0 -291 -142t-108 -382zM578 1550l247 299h291l-315 -299h-223z" />
<glyph unicode="&#xd4;" horiz-adv-x="1527" d="M106 717q0 164 54.5 309.5t152.5 243.5q164 170 451 170q326 0 500 -226q157 -204 157 -505q0 -171 -53 -316t-154 -246q-164 -170 -450 -170q-326 0 -500 226q-158 204 -158 514zM365 715q0 -249 106.5 -393t292.5 -144q184 0 291.5 143t107.5 388t-107.5 387.5 t-291.5 142.5q-183 0 -291 -142t-108 -382zM395 1550l226 299h284l228 -299h-226l-143 187l-143 -187h-226z" />
<glyph unicode="&#xd5;" horiz-adv-x="1527" d="M106 717q0 164 54.5 309.5t152.5 243.5q164 170 451 170q326 0 500 -226q157 -204 157 -505q0 -171 -53 -316t-154 -246q-164 -170 -450 -170q-326 0 -500 226q-158 204 -158 514zM365 715q0 -249 106.5 -393t292.5 -144q184 0 291.5 143t107.5 388t-107.5 387.5 t-291.5 142.5q-183 0 -291 -142t-108 -382zM383 1573q9 117 64 183.5t143 66.5q67 0 192 -45q101 -35 138 -35q75 0 84 84h139q-24 -252 -211 -252q-38 0 -72.5 7.5t-109.5 33.5q-116 39 -148 39q-60 0 -78 -82h-141z" />
<glyph unicode="&#xd6;" horiz-adv-x="1527" d="M106 717q0 164 54.5 309.5t152.5 243.5q164 170 451 170q326 0 500 -226q157 -204 157 -505q0 -171 -53 -316t-154 -246q-164 -170 -450 -170q-326 0 -500 226q-158 204 -158 514zM365 715q0 -249 106.5 -393t292.5 -144q184 0 291.5 143t107.5 388t-107.5 387.5 t-291.5 142.5q-183 0 -291 -142t-108 -382zM408 1704q0 63 41 103t104 40t104 -41t41 -104t-41 -104.5t-104 -41.5q-64 0 -104.5 41.5t-40.5 106.5zM831 1704q0 63 41.5 103t104.5 40t104 -41t41 -104t-41 -104.5t-104 -41.5q-64 0 -105 41.5t-41 106.5z" />
<glyph unicode="&#xd7;" d="M133 199l324 323l-324 324l133 131l324 -322l323 322l131 -131l-321 -324l321 -323l-133 -133l-321 323l-324 -323z" />
<glyph unicode="&#xd8;" horiz-adv-x="1527" d="M104 709q0 171 53 315.5t154 245.5q167 170 453 170q251 0 416 -140l131 154l98 -88l-139 -164q78 -113 113.5 -229.5t35.5 -263.5q0 -170 -53.5 -315.5t-153.5 -246.5q-167 -170 -454 -170q-249 0 -414 140l-129 -152l-102 88l139 162q-148 215 -148 494zM362 705 q0 -84 13 -146t47 -145l608 710q-60 61 -123 88t-147 27q-185 0 -291.5 -142.5t-106.5 -391.5zM494 293q109 -115 268 -115q184 0 291.5 143.5t107.5 389.5q0 86 -12.5 149.5t-46.5 145.5z" />
<glyph unicode="&#xd9;" horiz-adv-x="1511" d="M61 1241v176h541v-176l-147 -6v-657q0 -123 14.5 -194t48.5 -114q76 -92 240 -92q93 0 161.5 32t102.5 91q43 79 43 264v670l-143 6v176h530v-176l-147 -6v-606q0 -222 -17.5 -314t-73.5 -163q-135 -175 -456 -175q-364 0 -488 211q-38 66 -50.5 153.5t-12.5 287.5v606z M428 1849h291l248 -299h-224z" />
<glyph unicode="&#xda;" horiz-adv-x="1511" d="M61 1241v176h541v-176l-147 -6v-657q0 -123 14.5 -194t48.5 -114q76 -92 240 -92q93 0 161.5 32t102.5 91q43 79 43 264v670l-143 6v176h530v-176l-147 -6v-606q0 -222 -17.5 -314t-73.5 -163q-135 -175 -456 -175q-364 0 -488 211q-38 66 -50.5 153.5t-12.5 287.5v606z M604 1550l248 299h291l-316 -299h-223z" />
<glyph unicode="&#xdb;" horiz-adv-x="1511" d="M61 1241v176h541v-176l-147 -6v-657q0 -123 14.5 -194t48.5 -114q76 -92 240 -92q93 0 161.5 32t102.5 91q43 79 43 264v670l-143 6v176h530v-176l-147 -6v-606q0 -222 -17.5 -314t-73.5 -163q-135 -175 -456 -175q-364 0 -488 211q-38 66 -50.5 153.5t-12.5 287.5v606z M391 1550l225 299h285l227 -299h-225l-143 187l-144 -187h-225z" />
<glyph unicode="&#xdc;" horiz-adv-x="1511" d="M61 1241v176h541v-176l-147 -6v-657q0 -123 14.5 -194t48.5 -114q76 -92 240 -92q93 0 161.5 32t102.5 91q43 79 43 264v670l-143 6v176h530v-176l-147 -6v-606q0 -222 -17.5 -314t-73.5 -163q-135 -175 -456 -175q-364 0 -488 211q-38 66 -50.5 153.5t-12.5 287.5v606z M403 1704q0 63 41.5 103t104.5 40t104 -41t41 -104t-41 -104.5t-104 -41.5q-64 0 -105 41.5t-41 106.5zM827 1704q0 63 41.5 103t104.5 40t104 -41t41 -104t-41 -104.5t-104 -41.5q-64 0 -105 41.5t-41 106.5z" />
<glyph unicode="&#xdd;" horiz-adv-x="1234" d="M-41 1241v176h545v-176l-146 -4l185 -291q45 -71 82 -141l37 65q6 12 23 39t26 43l180 285l-146 4v176h529v-176l-117 -4l-416 -645v-410l177 -6v-176h-601v176l177 6v410l-418 645zM479 1550l248 299h291l-316 -299h-223z" />
<glyph unicode="&#xde;" horiz-adv-x="1177" d="M72 0v154l145 6v1100l-145 6v151h559v-151l-166 -6v-138h127q151 0 237.5 -18t151.5 -62q72 -51 110.5 -133.5t38.5 -185.5q0 -106 -40.5 -191t-116.5 -137q-118 -82 -352 -82h-156v-153l178 -6v-154h-571zM465 500h78q92 0 142.5 7.5t88.5 27.5q46 23 72 71t26 111 q0 62 -24 110.5t-66 73.5q-70 37 -229 37h-88v-438z" />
<glyph unicode="&#xdf;" horiz-adv-x="1261" d="M57 0v176l133 6v803q0 160 16.5 241t59.5 142q115 154 365 154q207 0 328.5 -106.5t121.5 -289.5q0 -121 -59.5 -205t-165.5 -112q78 -19 122 -41.5t81 -62.5q100 -106 100 -285q0 -204 -121.5 -323.5t-330.5 -119.5q-75 0 -170 19l26 188q57 -14 101 -14q117 0 182 68.5 t65 191.5q0 127 -74 201t-202 74q-16 0 -37 -3v183q236 3 236 235q0 103 -53.5 161t-147.5 58q-139 0 -182 -129q-21 -62 -21 -213v-997h-373z" />
<glyph unicode="&#xe0;" horiz-adv-x="1153" d="M78 293q0 98 43 174t123 119q100 53 307 53q37 0 172 -6v33q0 116 -55 170.5t-172 54.5q-134 0 -287 -88l-64 172q185 92 377 92q255 0 363 -127q45 -55 61.5 -124t16.5 -206v-428l133 -6v-176h-351l-8 119q-76 -77 -148.5 -109.5t-174.5 -32.5q-158 0 -247 84t-89 232z M248 1497h291l247 -299h-223zM326 299q0 -72 44 -115t117 -43q135 0 236 146v196q-47 4 -107 4q-149 0 -219.5 -45.5t-70.5 -142.5z" />
<glyph unicode="&#xe1;" horiz-adv-x="1153" d="M78 293q0 98 43 174t123 119q100 53 307 53q37 0 172 -6v33q0 116 -55 170.5t-172 54.5q-134 0 -287 -88l-64 172q185 92 377 92q255 0 363 -127q45 -55 61.5 -124t16.5 -206v-428l133 -6v-176h-351l-8 119q-76 -77 -148.5 -109.5t-174.5 -32.5q-158 0 -247 84t-89 232z M326 299q0 -72 44 -115t117 -43q135 0 236 146v196q-47 4 -107 4q-149 0 -219.5 -45.5t-70.5 -142.5zM391 1198l248 299h291l-316 -299h-223z" />
<glyph unicode="&#xe2;" horiz-adv-x="1153" d="M78 293q0 98 43 174t123 119q100 53 307 53q37 0 172 -6v33q0 116 -55 170.5t-172 54.5q-134 0 -287 -88l-64 172q185 92 377 92q255 0 363 -127q45 -55 61.5 -124t16.5 -206v-428l133 -6v-176h-351l-8 119q-76 -77 -148.5 -109.5t-174.5 -32.5q-158 0 -247 84t-89 232z M184 1198l226 299h284l228 -299h-226l-143 186l-143 -186h-226zM326 299q0 -72 44 -115t117 -43q135 0 236 146v196q-47 4 -107 4q-149 0 -219.5 -45.5t-70.5 -142.5z" />
<glyph unicode="&#xe3;" horiz-adv-x="1153" d="M78 293q0 98 43 174t123 119q100 53 307 53q37 0 172 -6v33q0 116 -55 170.5t-172 54.5q-134 0 -287 -88l-64 172q185 92 377 92q255 0 363 -127q45 -55 61.5 -124t16.5 -206v-428l133 -6v-176h-351l-8 119q-76 -77 -148.5 -109.5t-174.5 -32.5q-158 0 -247 84t-89 232z M174 1217q9 117 64 184t143 67q67 0 192 -45q98 -34 138 -34q75 0 84 84h139q-24 -254 -211 -254q-38 0 -72.5 7.5t-109.5 33.5q-113 38 -148 38q-60 0 -78 -81h-141zM326 299q0 -72 44 -115t117 -43q135 0 236 146v196q-47 4 -107 4q-149 0 -219.5 -45.5t-70.5 -142.5z" />
<glyph unicode="&#xe4;" horiz-adv-x="1153" d="M78 293q0 98 43 174t123 119q100 53 307 53q37 0 172 -6v33q0 116 -55 170.5t-172 54.5q-134 0 -287 -88l-64 172q185 92 377 92q255 0 363 -127q45 -55 61.5 -124t16.5 -206v-428l133 -6v-176h-351l-8 119q-76 -77 -148.5 -109.5t-174.5 -32.5q-158 0 -247 84t-89 232z M225 1362q0 60 40 98.5t100 38.5q63 0 102 -38.5t39 -100.5t-39 -101.5t-100 -39.5q-63 0 -102.5 40t-39.5 103zM326 299q0 -72 44 -115t117 -43q135 0 236 146v196q-47 4 -107 4q-149 0 -219.5 -45.5t-70.5 -142.5zM649 1362q0 60 39.5 98.5t99.5 38.5q63 0 102.5 -38.5 t39.5 -100.5t-39 -101.5t-100 -39.5q-63 0 -102.5 40t-39.5 103z" />
<glyph unicode="&#xe5;" horiz-adv-x="1153" d="M78 293q0 98 43 174t123 119q100 53 307 53q37 0 172 -6v33q0 116 -55 170.5t-172 54.5q-134 0 -287 -88l-64 172q185 92 377 92q255 0 363 -127q45 -55 61.5 -124t16.5 -206v-428l133 -6v-176h-351l-8 119q-76 -77 -148.5 -109.5t-174.5 -32.5q-158 0 -247 84t-89 232z M326 299q0 -72 44 -115t117 -43q135 0 236 146v196q-47 4 -107 4q-149 0 -219.5 -45.5t-70.5 -142.5zM350 1380q0 92 63.5 154.5t157.5 62.5q95 0 158.5 -62.5t63.5 -156.5q0 -95 -63.5 -158t-158.5 -63t-158 63t-63 160zM469 1378q0 -51 27.5 -80.5t74.5 -29.5 q46 0 74.5 30t28.5 80q0 49 -28.5 79t-74.5 30t-74 -30t-28 -79z" />
<glyph unicode="&#xe6;" horiz-adv-x="1761" d="M78 291q0 96 43.5 170.5t126.5 116.5q97 53 305 53q65 0 172 -8v30q0 39 -13 86t-30 72q-61 80 -190 80q-130 0 -283 -88l-64 172q185 92 379 92q244 0 357 -131q69 69 146 100t181 31q154 0 260 -66t150 -190q28 -72 38.5 -151t10.5 -214h-698q12 -147 82 -217.5 t202 -70.5q150 0 297 100l84 -176q-171 -105 -395 -105q-152 0 -244.5 41.5t-163.5 141.5q-88 -100 -179.5 -141.5t-225.5 -41.5q-167 0 -257.5 81.5t-90.5 232.5zM326 295q0 -69 44 -111.5t117 -42.5q98 0 167 61.5t69 149.5v121q-94 4 -111 4q-146 0 -216 -45t-70 -137z M969 614h448q-3 133 -59.5 204t-159.5 71q-101 0 -162 -73t-67 -202z" />
<glyph unicode="&#xe7;" horiz-adv-x="1044" d="M96 516q0 132 39 241t111 183q68 66 152.5 96.5t201.5 30.5q170 0 338 -63v-322h-197l-16 184q-65 19 -117 19q-126 0 -195 -95t-69 -268q0 -172 77 -266t218 -94q131 0 256 84l76 -174q-153 -95 -355 -95q-245 0 -382.5 143t-137.5 396zM248 -375l241 307h269l-287 -307 h-223z" />
<glyph unicode="&#xe8;" horiz-adv-x="1171" d="M96 520q0 255 134 401t366 146q163 0 273 -65.5t157 -190.5q28 -72 38.5 -150.5t12.5 -214.5h-729q13 -147 87 -217.5t214 -70.5q156 0 312 100l83 -176q-182 -105 -401 -105q-263 0 -405 141t-142 402zM256 1497h291l248 -299h-224zM348 614h483q-3 132 -64.5 204.5 t-170.5 72.5t-175.5 -74t-72.5 -203z" />
<glyph unicode="&#xe9;" horiz-adv-x="1171" d="M96 520q0 255 134 401t366 146q163 0 273 -65.5t157 -190.5q28 -72 38.5 -150.5t12.5 -214.5h-729q13 -147 87 -217.5t214 -70.5q156 0 312 100l83 -176q-182 -105 -401 -105q-263 0 -405 141t-142 402zM348 614h483q-3 132 -64.5 204.5t-170.5 72.5t-175.5 -74 t-72.5 -203zM426 1198l248 299h291l-316 -299h-223z" />
<glyph unicode="&#xea;" horiz-adv-x="1171" d="M96 520q0 255 134 401t366 146q163 0 273 -65.5t157 -190.5q28 -72 38.5 -150.5t12.5 -214.5h-729q13 -147 87 -217.5t214 -70.5q156 0 312 100l83 -176q-182 -105 -401 -105q-263 0 -405 141t-142 402zM223 1198l226 299h284l228 -299h-226l-143 186l-143 -186h-226z M348 614h483q-3 132 -64.5 204.5t-170.5 72.5t-175.5 -74t-72.5 -203z" />
<glyph unicode="&#xeb;" horiz-adv-x="1171" d="M96 520q0 255 134 401t366 146q163 0 273 -65.5t157 -190.5q28 -72 38.5 -150.5t12.5 -214.5h-729q13 -147 87 -217.5t214 -70.5q156 0 312 100l83 -176q-182 -105 -401 -105q-263 0 -405 141t-142 402zM254 1362q0 60 39.5 98.5t99.5 38.5q63 0 102.5 -38.5t39.5 -100.5 t-39.5 -101.5t-100.5 -39.5q-63 0 -102 40t-39 103zM348 614h483q-3 132 -64.5 204.5t-170.5 72.5t-175.5 -74t-72.5 -203zM678 1362q0 60 39.5 98.5t99.5 38.5q63 0 102 -38.5t39 -100.5t-39 -101.5t-100 -39.5q-63 0 -102 40t-39 103z" />
<glyph unicode="&#xec;" horiz-adv-x="636" d="M-57 1497h290l248 -299h-223zM66 0v176l133 6v680l-133 6v176l372 11v-873l131 -6v-176h-503z" />
<glyph unicode="&#xed;" horiz-adv-x="636" d="M66 0v176l133 6v680l-133 6v176l372 11v-873l131 -6v-176h-503zM125 1198l248 299h291l-316 -299h-223z" />
<glyph unicode="&#xee;" horiz-adv-x="636" d="M-76 1198l226 299h284l228 -299h-226l-143 186l-143 -186h-226zM68 0v176l131 6v680l-131 6v176l370 11v-873l133 -6v-176h-503z" />
<glyph unicode="&#xef;" horiz-adv-x="636" d="M-53 1362q0 60 39.5 98.5t99.5 38.5q63 0 102 -38.5t39 -100.5t-39 -101.5t-100 -39.5q-63 0 -102 40t-39 103zM68 0v176l133 6v680l-133 6v176l372 11v-873l131 -6v-176h-503zM371 1362q0 60 39.5 98.5t99.5 38.5q63 0 102 -38.5t39 -100.5t-39 -101.5t-100 -39.5 q-63 0 -102 40t-39 103z" />
<glyph unicode="&#xf0;" horiz-adv-x="1187" d="M104 483q0 224 117 357t314 133q56 0 96 -9t96 -34q-80 139 -188 229l-287 -131l-45 107l219 102q-101 57 -225 92l59 187q220 -38 399 -170l267 122l49 -106l-217 -100q158 -158 241.5 -353t83.5 -403q0 -253 -129.5 -391t-367.5 -138q-226 0 -354 135t-128 371z M352 481q0 -151 63.5 -236t176.5 -85q110 0 177 87.5t67 233.5q0 145 -66 227.5t-182 82.5q-112 0 -174 -81t-62 -229z" />
<glyph unicode="&#xf1;" horiz-adv-x="1314" d="M66 0v176l133 6v680l-133 6v176l356 11v-166q105 104 182.5 141t186.5 37q221 0 296 -172q35 -77 35 -258v-455l133 -6v-176h-503v176l131 6v455q0 131 -39.5 188.5t-130.5 57.5q-146 0 -275 -176v-525l131 -6v-176h-503zM276 1217q9 117 64 184t143 67q68 0 193 -45 q98 -34 137 -34q75 0 84 84h139q-24 -254 -211 -254q-38 0 -72.5 7.5t-109.5 33.5q-113 38 -147 38q-60 0 -78 -81h-142z" />
<glyph unicode="&#xf2;" horiz-adv-x="1216" d="M96 528q0 249 138 394t374 145q238 0 375 -146t137 -399t-137 -399t-375 -146q-239 0 -375.5 146.5t-136.5 404.5zM279 1497h290l248 -299h-223zM344 526q0 -172 70 -269t194 -97q123 0 193.5 96.5t70.5 265.5t-70.5 266t-193.5 97t-193.5 -96.5t-70.5 -262.5z" />
<glyph unicode="&#xf3;" horiz-adv-x="1216" d="M96 528q0 249 138 394t374 145q238 0 375 -146t137 -399t-137 -399t-375 -146q-239 0 -375.5 146.5t-136.5 404.5zM344 526q0 -172 70 -269t194 -97q123 0 193.5 96.5t70.5 265.5t-70.5 266t-193.5 97t-193.5 -96.5t-70.5 -262.5zM440 1198l248 299h291l-315 -299h-224z " />
<glyph unicode="&#xf4;" horiz-adv-x="1216" d="M96 528q0 249 138 394t374 145q238 0 375 -146t137 -399t-137 -399t-375 -146q-239 0 -375.5 146.5t-136.5 404.5zM240 1198l225 299h285l227 -299h-225l-144 186l-143 -186h-225zM344 526q0 -172 70 -269t194 -97q123 0 193.5 96.5t70.5 265.5t-70.5 266t-193.5 97 t-193.5 -96.5t-70.5 -262.5z" />
<glyph unicode="&#xf5;" horiz-adv-x="1216" d="M96 528q0 249 138 394t374 145q238 0 375 -146t137 -399t-137 -399t-375 -146q-239 0 -375.5 146.5t-136.5 404.5zM227 1217q9 117 64 184t143 67q68 0 193 -45q98 -34 137 -34q75 0 84 84h139q-24 -254 -211 -254q-38 0 -72.5 7.5t-109.5 33.5q-113 38 -148 38 q-59 0 -77 -81h-142zM344 526q0 -172 70 -269t194 -97q123 0 193.5 96.5t70.5 265.5t-70.5 266t-193.5 97t-193.5 -96.5t-70.5 -262.5z" />
<glyph unicode="&#xf6;" horiz-adv-x="1216" d="M96 528q0 249 138 394t374 145q238 0 375 -146t137 -399t-137 -399t-375 -146q-239 0 -375.5 146.5t-136.5 404.5zM256 1362q0 60 39.5 98.5t99.5 38.5q63 0 102.5 -38.5t39.5 -100.5t-39.5 -101.5t-100.5 -39.5q-63 0 -102 40t-39 103zM344 526q0 -172 70 -269t194 -97 q123 0 193.5 96.5t70.5 265.5t-70.5 266t-193.5 97t-193.5 -96.5t-70.5 -262.5zM680 1362q0 60 39.5 98.5t99.5 38.5q63 0 102.5 -38.5t39.5 -100.5t-39.5 -101.5t-100.5 -39.5q-63 0 -102 40t-39 103z" />
<glyph unicode="&#xf7;" d="M94 428v188h993v-188h-993zM449 164q0 62 40 101.5t103 39.5t103 -40t40 -103t-40 -103.5t-103 -40.5q-64 0 -103.5 40.5t-39.5 105.5zM449 881q0 63 41 103t104 40t103 -40t40 -103q0 -64 -40 -105t-103 -41q-64 0 -104.5 40.5t-40.5 105.5z" />
<glyph unicode="&#xf8;" horiz-adv-x="1222" d="M61 45l132 137q-49 76 -71 156.5t-22 183.5q0 253 137 399t373 146q106 0 182 -24.5t150 -81.5l125 129l90 -91l-129 -133q51 -78 73.5 -159.5t22.5 -186.5q0 -252 -137.5 -397.5t-376.5 -145.5q-195 0 -331 109l-127 -131zM342 518q0 -37 3 -56.5t17 -82.5l5 -17 l430 447q-72 78 -187 78q-126 0 -197 -98.5t-71 -270.5zM426 240q73 -82 188 -82q126 0 197.5 97t71.5 269q0 44 -5 74t-22 90z" />
<glyph unicode="&#xf9;" horiz-adv-x="1294" d="M57 868v176l373 11v-647q0 -130 39 -188t127 -58q67 0 136.5 44t131.5 126v530l-133 6v176l373 11v-873l131 -6v-176h-352v154q-152 -177 -365 -177q-108 0 -183 44t-110 129q-35 80 -35 260v452zM297 1497h291l248 -299h-224z" />
<glyph unicode="&#xfa;" horiz-adv-x="1294" d="M57 868v176l373 11v-647q0 -130 39 -188t127 -58q67 0 136.5 44t131.5 126v530l-133 6v176l373 11v-873l131 -6v-176h-352v154q-152 -177 -365 -177q-108 0 -183 44t-110 129q-35 80 -35 260v452zM469 1198l248 299h291l-316 -299h-223z" />
<glyph unicode="&#xfb;" horiz-adv-x="1294" d="M57 868v176l373 11v-647q0 -130 39 -188t127 -58q67 0 136.5 44t131.5 126v530l-133 6v176l373 11v-873l131 -6v-176h-352v154q-152 -177 -365 -177q-108 0 -183 44t-110 129q-35 80 -35 260v452zM260 1198l225 299h285l227 -299h-225l-143 186l-144 -186h-225z" />
<glyph unicode="&#xfc;" horiz-adv-x="1294" d="M57 868v176l373 11v-647q0 -130 39 -188t127 -58q67 0 136.5 44t131.5 126v530l-133 6v176l373 11v-873l131 -6v-176h-352v154q-152 -177 -365 -177q-108 0 -183 44t-110 129q-35 80 -35 260v452zM295 1362q0 60 39.5 98.5t99.5 38.5q63 0 102 -38.5t39 -100.5 t-39 -101.5t-100 -39.5q-63 0 -102 40t-39 103zM719 1362q0 60 39.5 98.5t99.5 38.5q63 0 102 -38.5t39 -100.5t-39 -101.5t-100 -39.5q-63 0 -102 40t-39 103z" />
<glyph unicode="&#xfd;" horiz-adv-x="1116" d="M-10 868v176h489v-176l-135 -6l137 -346q63 -166 66 -176q5 -22 22 -70q12 31 21 64q24 80 67 192l129 336l-135 6v176h465v-176l-102 -4l-348 -887q-71 -180 -131 -273t-130.5 -131t-177.5 -38q-98 0 -213 37l43 186q72 -30 129 -30q83 0 138 63t114 225l-346 848z M436 1198l248 299h291l-316 -299h-223z" />
<glyph unicode="&#xfe;" horiz-adv-x="1249" d="M53 -264l133 6v1573l-133 6v176l373 10v-600q76 87 146 123.5t161 36.5q191 0 305.5 -150.5t114.5 -400.5q0 -244 -114.5 -391.5t-303.5 -147.5q-192 0 -309 156v-391l156 -6v-176h-529v176zM426 340q47 -87 111.5 -132.5t138.5 -45.5q104 0 166.5 98t62.5 264 q0 164 -64 261.5t-173 97.5q-68 0 -126 -41.5t-116 -132.5v-369z" />
<glyph unicode="&#xff;" horiz-adv-x="1116" d="M-10 868v176h489v-176l-135 -6l137 -346q63 -166 66 -176q5 -22 22 -70q12 31 21 64q24 80 67 192l129 336l-135 6v176h465v-176l-102 -4l-348 -887q-71 -180 -131 -273t-130.5 -131t-177.5 -38q-98 0 -213 37l43 186q72 -30 129 -30q83 0 138 63t114 225l-346 848z M223 1362q0 60 39.5 98.5t99.5 38.5q63 0 102.5 -38.5t39.5 -100.5t-39 -101.5t-100 -39.5q-63 0 -102.5 40t-39.5 103zM647 1362q0 60 39.5 98.5t99.5 38.5q63 0 102.5 -38.5t39.5 -100.5t-39.5 -101.5t-100.5 -39.5q-63 0 -102 40t-39 103z" />
<glyph unicode="&#x152;" horiz-adv-x="2007" d="M106 711q0 208 71.5 363t207.5 243q143 92 342 98q41 2 178 2h953v-397h-193l-14 203h-400v-406h469v-196h-469v-426h430l15 208h192v-403h-973q-143 0 -214 6t-138 25q-220 62 -338.5 238.5t-118.5 441.5zM365 717q0 -147 43.5 -258t126.5 -174q65 -50 149.5 -70 t228.5 -20h91v1028h-91q-184 0 -270 -23.5t-151 -91.5q-127 -133 -127 -391z" />
<glyph unicode="&#x153;" horiz-adv-x="1918" d="M94 522q0 252 134 398.5t364 146.5q248 0 383 -178q67 93 156 135.5t217 42.5q160 0 271 -66.5t155 -189.5q46 -124 49 -365h-725q13 -148 86 -218t211 -70q158 0 311 100l84 -176q-179 -105 -399 -105q-146 0 -244.5 43t-173.5 140q-72 -96 -161.5 -139.5t-213.5 -43.5 q-233 0 -368.5 146.5t-135.5 398.5zM342 526q0 -172 68 -269t188 -97t189 96.5t69 265.5t-69 266t-189 97q-118 0 -187 -96.5t-69 -262.5zM1100 614h479q-4 133 -65.5 205t-170.5 72q-107 0 -172 -74t-71 -203z" />
<glyph unicode="&#x178;" horiz-adv-x="1234" d="M-41 1241v176h545v-176l-146 -4l185 -291q45 -71 82 -141l37 65q6 12 23 39t26 43l180 285l-146 4v176h529v-176l-117 -4l-416 -645v-410l177 -6v-176h-601v176l177 6v410l-418 645zM270 1704q0 63 41.5 103t104.5 40t104 -41t41 -104t-41 -104.5t-104 -41.5 q-64 0 -105 41.5t-41 106.5zM694 1704q0 63 41.5 103t104.5 40t104 -41t41 -104t-41 -104.5t-104 -41.5q-64 0 -105 41.5t-41 106.5z" />
<glyph unicode="&#x2c6;" horiz-adv-x="1024" d="M143 1198l226 299h284l228 -299h-226l-143 186l-143 -186h-226z" />
<glyph unicode="&#x2dc;" horiz-adv-x="1024" d="M133 1217q9 117 64 184t143 67q67 0 192 -45q98 -34 138 -34q75 0 84 84h139q-24 -254 -211 -254q-38 0 -72.5 7.5t-109.5 33.5q-113 38 -148 38q-60 0 -78 -81h-141z" />
<glyph unicode="&#x2013;" d="M88 483v189h1004v-189h-1004z" />
<glyph unicode="&#x2014;" horiz-adv-x="2048" d="M-74 483v189h2198v-189h-2198z" />
<glyph unicode="&#x2018;" horiz-adv-x="460" d="M4 971l207 526h223l-162 -526h-268z" />
<glyph unicode="&#x2019;" horiz-adv-x="460" d="M27 971l161 526h269l-207 -526h-223z" />
<glyph unicode="&#x201a;" horiz-adv-x="460" d="M10 -244l162 527h268l-207 -527h-223z" />
<glyph unicode="&#x201c;" horiz-adv-x="866" d="M10 971l207 526h223l-161 -526h-269zM418 971l207 526h223l-162 -526h-268z" />
<glyph unicode="&#x201d;" horiz-adv-x="866" d="M20 971l162 526h269l-207 -526h-224zM428 971l162 526h268l-207 -526h-223z" />
<glyph unicode="&#x201e;" horiz-adv-x="866" d="M0 -244l162 527h268l-207 -527h-223zM408 -244l161 527h269l-207 -527h-223z" />
<glyph unicode="&#x2022;" horiz-adv-x="1024" d="M178 719q0 138 99 236t239 98q142 0 240 -97.5t98 -240.5q0 -141 -97.5 -239.5t-238.5 -98.5q-145 0 -242.5 98t-97.5 244z" />
<glyph unicode="&#x2026;" horiz-adv-x="1769" d="M137 137q0 67 46 112.5t114 45.5q67 0 112.5 -45.5t45.5 -112.5q0 -69 -45 -114.5t-113 -45.5q-69 0 -114.5 45.5t-45.5 114.5zM727 137q0 67 46 112.5t114 45.5q67 0 112 -45t45 -113q0 -69 -44.5 -114.5t-112.5 -45.5q-69 0 -114.5 45.5t-45.5 114.5zM1317 137 q0 67 46 112.5t114 45.5q67 0 112 -45t45 -113q0 -69 -44.5 -114.5t-112.5 -45.5q-69 0 -114.5 45.5t-45.5 114.5z" />
<glyph unicode="&#x2039;" horiz-adv-x="671" d="M63 522l365 463l158 -119l-256 -344l256 -346l-158 -119z" />
<glyph unicode="&#x203a;" horiz-adv-x="671" d="M84 176l256 344l-256 346l158 119l364 -465l-364 -463z" />
<glyph unicode="&#x20ac;" d="M-23 502l48 133h157q-2 25 -2 57q0 39 2 72h-205l48 131h174q53 261 210.5 403t395.5 142q194 0 369 -88l-68 -191q-82 46 -146 65t-139 19q-151 0 -244 -86.5t-133 -263.5h594l-47 -131h-559q-2 -27 -2 -62q0 -42 2 -67h514l-45 -131h-448q38 -170 130 -251t246 -81 q150 0 297 78l54 -195q-180 -78 -377 -78q-252 0 -409 136t-197 389h-220z" />
<glyph unicode="&#x2122;" horiz-adv-x="1978" d="M23 1153v264h743v-264h-133l-12 135h-144v-516l109 -6v-127h-387v127l110 6v516h-143l-10 -135h-133zM815 639v127l94 4v516l-94 4v127h330l213 -592l211 592h321v-127l-94 -6v-512l94 -6v-127h-329v127l75 4v240q0 135 4 241l-18 -65l-16 -58l-12.5 -37.5t-22 -63.5 t-12.5 -36l-134 -352h-143l-129 338q-37 90 -90 274q4 -82 4 -241v-238l78 -6v-127h-330z" />
<glyph unicode="&#xe000;" horiz-adv-x="1044" d="M0 0v1044h1044v-1044h-1044z" />
</font>
</defs>
</svg>
